<mxfile host="app.diagrams.net" modified="2022-11-18T12:05:11.703Z" agent="5.0 (Windows NT 10.0; Win64; x64) AppleWebKit/537.36 (KHTML, like Gecko) Chrome/107.0.0.0 Safari/537.36" etag="8FNDnPp33utwJ1ADPUwB" version="20.5.3" type="github">
  <diagram id="vevyU_JwpkgxcqEgq_-W" name="Страница 1">
    <mxGraphModel dx="1414" dy="381" grid="1" gridSize="10" guides="1" tooltips="1" connect="1" arrows="1" fold="1" page="1" pageScale="1" pageWidth="827" pageHeight="1169" math="0" shadow="0">
      <root>
        <mxCell id="0" />
        <mxCell id="1" parent="0" />
        <mxCell id="BNVn_nOS1r-TKsKf9ATg-1" value=":ChangeLongDocumentInternalState" style="shape=umlLifeline;perimeter=lifelinePerimeter;whiteSpace=wrap;html=1;container=1;collapsible=0;recursiveResize=0;outlineConnect=0;fillColor=#00CCCC;strokeColor=#006666;" vertex="1" parent="1">
          <mxGeometry x="90" y="40" width="220" height="3440" as="geometry" />
        </mxCell>
        <mxCell id="BNVn_nOS1r-TKsKf9ATg-7" value="" style="html=1;points=[];perimeter=orthogonalPerimeter;strokeColor=#000000;fillColor=#FFFFFF;" vertex="1" parent="BNVn_nOS1r-TKsKf9ATg-1">
          <mxGeometry x="105" y="80" width="10" height="80" as="geometry" />
        </mxCell>
        <mxCell id="BNVn_nOS1r-TKsKf9ATg-9" value="" style="html=1;points=[];perimeter=orthogonalPerimeter;strokeColor=#000000;fillColor=#FFFFFF;" vertex="1" parent="BNVn_nOS1r-TKsKf9ATg-1">
          <mxGeometry x="105" y="180" width="10" height="80" as="geometry" />
        </mxCell>
        <mxCell id="BNVn_nOS1r-TKsKf9ATg-2" value="BinaryBusinessTransactionBase&amp;lt;ChangeStateInfo, bool&amp;gt;" style="shape=umlLifeline;perimeter=lifelinePerimeter;whiteSpace=wrap;html=1;container=1;collapsible=0;recursiveResize=0;outlineConnect=0;fillColor=#00CCCC;strokeColor=#006666;" vertex="1" parent="1">
          <mxGeometry x="520" y="40" width="320" height="3440" as="geometry" />
        </mxCell>
        <mxCell id="BNVn_nOS1r-TKsKf9ATg-11" value="" style="html=1;points=[];perimeter=orthogonalPerimeter;strokeColor=#000000;fillColor=#FFFFFF;" vertex="1" parent="BNVn_nOS1r-TKsKf9ATg-2">
          <mxGeometry x="155" y="180" width="10" height="80" as="geometry" />
        </mxCell>
        <mxCell id="BNVn_nOS1r-TKsKf9ATg-4" value="" style="shape=umlLifeline;participant=umlActor;perimeter=lifelinePerimeter;whiteSpace=wrap;html=1;container=1;collapsible=0;recursiveResize=0;verticalAlign=top;spacingTop=36;outlineConnect=0;strokeColor=#000000;fillColor=#FFFFFF;" vertex="1" parent="1">
          <mxGeometry x="-210" y="40" width="20" height="300" as="geometry" />
        </mxCell>
        <mxCell id="BNVn_nOS1r-TKsKf9ATg-6" value="" style="shape=umlLifeline;participant=umlActor;perimeter=lifelinePerimeter;whiteSpace=wrap;html=1;container=1;collapsible=0;recursiveResize=0;verticalAlign=top;spacingTop=36;outlineConnect=0;strokeColor=#000000;fillColor=#FFFFFF;" vertex="1" parent="1">
          <mxGeometry x="-413" y="40" width="20" height="300" as="geometry" />
        </mxCell>
        <mxCell id="BNVn_nOS1r-TKsKf9ATg-3" value="Run()" style="html=1;verticalAlign=bottom;endArrow=block;rounded=0;entryX=-0.021;entryY=0.008;entryDx=0;entryDy=0;entryPerimeter=0;" edge="1" parent="1" source="BNVn_nOS1r-TKsKf9ATg-4" target="BNVn_nOS1r-TKsKf9ATg-7">
          <mxGeometry width="80" relative="1" as="geometry">
            <mxPoint x="30" y="120" as="sourcePoint" />
            <mxPoint x="80" y="120" as="targetPoint" />
          </mxGeometry>
        </mxCell>
        <mxCell id="BNVn_nOS1r-TKsKf9ATg-8" value="Run()" style="html=1;verticalAlign=bottom;endArrow=block;rounded=0;entryX=0.081;entryY=0;entryDx=0;entryDy=0;entryPerimeter=0;" edge="1" parent="1" source="BNVn_nOS1r-TKsKf9ATg-6" target="BNVn_nOS1r-TKsKf9ATg-9">
          <mxGeometry width="80" relative="1" as="geometry">
            <mxPoint x="-189.97619047619037" y="130.64000000000004" as="sourcePoint" />
            <mxPoint x="204.78999999999996" y="130.64000000000004" as="targetPoint" />
          </mxGeometry>
        </mxCell>
        <mxCell id="BNVn_nOS1r-TKsKf9ATg-10" value="&amp;lt;&amp;lt; dispatch &amp;gt;&amp;gt;" style="html=1;verticalAlign=bottom;endArrow=block;rounded=0;entryX=-0.017;entryY=0.022;entryDx=0;entryDy=0;entryPerimeter=0;" edge="1" parent="1" source="BNVn_nOS1r-TKsKf9ATg-9" target="BNVn_nOS1r-TKsKf9ATg-11">
          <mxGeometry width="80" relative="1" as="geometry">
            <mxPoint x="420" y="200" as="sourcePoint" />
            <mxPoint x="500" y="200" as="targetPoint" />
          </mxGeometry>
        </mxCell>
      </root>
    </mxGraphModel>
  </diagram>
</mxfile>
